<?xml version="1.0" standalone="no"?><!-- Generator: Gravit.io --><svg xmlns="http://www.w3.org/2000/svg" xmlns:xlink="http://www.w3.org/1999/xlink" style="isolation:isolate" viewBox="0 0 270 270" width="270" height="270"><path d=" M 10.909499999999923 148.76550000000003 L 10.909499999999923 1.887500000000017 L 98.83049999999992 39.558500000000016" fill="rgb(56,131,176)"/><path d=" M 234.89049999999992 84.28150000000002 C 233.5814999999999 82.14350000000002 232.2064999999999 80.0515 230.7704999999999 78.0035 L 229.35649999999993 82.1285 C 229.35649999999993 82.1285 230.87749999999994 82.67950000000002 233.15149999999994 83.51250000000002 C 233.7084999999999 83.71150000000003 234.28649999999993 83.98350000000002 234.89049999999992 84.28150000000002 Z " fill="rgb(56,131,176)"/><path d=" M 191.41049999999993 145.06050000000002 C 191.41049999999993 153.82450000000003 198.51749999999993 160.92450000000002 207.27649999999994 160.92450000000002 C 216.03649999999993 160.92450000000002 223.14049999999992 153.82450000000003 223.14049999999992 145.06050000000002 C 223.14049999999992 136.29850000000002 216.03649999999993 129.19450000000003 207.27649999999994 129.19450000000003 C 198.51749999999993 129.19350000000003 191.41049999999993 136.2975 191.41049999999993 145.06050000000002 Z " fill="rgb(56,131,176)"/><path d=" M 209.36649999999992 224.0415 L 209.12349999999992 211.56250000000003 C 209.12349999999992 211.56250000000003 208.7224999999999 211.58250000000004 208.0114999999999 211.62650000000002 L 207.96249999999992 211.6295 C 207.7104999999999 211.6175 207.45249999999993 211.6055 207.16849999999994 211.59050000000002 C 206.58349999999996 211.56150000000002 205.9244999999999 211.5285 205.20349999999996 211.4925 C 203.77549999999997 211.4145 202.1015 211.3315 200.30649999999997 211.2345 C 198.9525 211.0095 197.5075 210.7695 196.06349999999998 210.52349999999998 C 194.65949999999998 210.39749999999998 193.07449999999997 209.9475 191.60549999999998 209.5605 C 190.14649999999997 209.16049999999998 188.75449999999998 208.8825 187.60649999999998 208.5025 C 185.3355 207.6615 183.81949999999998 207.1035 183.81949999999998 207.1035 L 179.30749999999998 218.7635 C 171.52749999999997 215.7545 164.34049999999996 211.55949999999999 157.97749999999996 206.3845 L 165.83749999999998 196.7215 C 165.83749999999998 196.7215 160.83249999999998 192.58249999999998 156.6375 187.63649999999998 C 154.73149999999998 185.0255 152.5955 182.5605 151.46849999999998 180.4055 C 150.20149999999998 178.33849999999998 149.35849999999996 176.95649999999998 149.35849999999996 176.95649999999998 L 138.43349999999995 182.93349999999998 C 134.61249999999995 175.95049999999998 131.82449999999994 168.32449999999997 130.25249999999994 160.2625 L 142.48649999999995 157.8785 C 142.48649999999995 157.8785 142.24749999999995 156.2765 141.88449999999995 153.8805 C 141.64549999999994 152.69150000000002 141.48449999999994 151.2825 141.47149999999993 149.7595 C 141.43349999999992 149.0015 141.39649999999995 148.2155 141.35949999999994 147.4195 L 141.28949999999995 146.2155 L 141.25449999999995 145.6135 L 141.23649999999995 145.3105 L 141.22949999999994 145.17149999999998 C 141.31849999999994 143.40749999999997 141.41149999999993 141.6505 141.49149999999995 139.99349999999998 C 141.54549999999995 139.11749999999998 141.56249999999994 138.17549999999997 141.64149999999995 137.4525 C 141.75049999999996 136.83149999999998 141.85549999999995 136.2445 141.95249999999996 135.70149999999998 C 142.28649999999996 133.53449999999998 142.51149999999996 132.08849999999998 142.51149999999996 132.08849999999998 L 130.27449999999996 129.73149999999998 C 131.87149999999997 121.61049999999997 134.70949999999996 113.93949999999998 138.58649999999997 106.9185 L 149.49149999999997 112.9385 C 149.49149999999997 112.9385 150.3335 111.5635 151.59649999999996 109.4915 C 152.17749999999995 108.42349999999999 152.97349999999997 107.2525 153.92749999999995 106.0675 C 154.86549999999994 104.8735 155.75749999999996 103.51650000000001 156.81049999999996 102.2945 C 158.99649999999997 99.9015 161.12049999999996 97.45349999999999 163.01149999999996 95.9185 C 163.91049999999996 95.09649999999999 164.65349999999995 94.41549999999998 165.17749999999995 93.9375 C 165.69549999999995 93.4555 166.04649999999995 93.2425 166.04649999999995 93.2425 L 158.21949999999995 83.5445 C 164.60349999999994 78.39349999999999 171.80349999999996 74.22149999999999 179.59749999999997 71.2415 L 184.06449999999998 82.92750000000001 C 184.06449999999998 82.92750000000001 185.58149999999998 82.3715 187.84949999999998 81.52850000000001 C 189.0245 81.2295 190.39049999999997 80.8735 191.8585 80.49549999999999 C 193.3155 80.0815 194.88349999999997 79.69749999999999 196.4955 79.5275 C 198.0985 79.28649999999999 199.69549999999998 79.04650000000001 201.1895 78.82149999999999 C 202.71050000000002 78.7475 204.12350000000004 78.6825 205.34550000000002 78.62449999999998 C 205.9475 78.58849999999998 206.50650000000002 78.55849999999998 207.0005 78.5325 C 207.2215 78.51649999999998 207.43149999999997 78.50549999999998 207.6255 78.49449999999999 L 207.73250000000002 78.50049999999999 C 208.56850000000003 78.5375 209.04450000000003 78.5635 209.04450000000003 78.5635 L 209.68050000000005 66.08850000000001 C 214.03350000000006 66.19050000000001 218.29450000000003 66.6515 222.44550000000004 67.42949999999999 C 200.30150000000003 42.29449999999999 167.87950000000004 26.4315 131.74450000000004 26.4315 C 65.00950000000005 26.4315 10.906500000000051 80.53550000000001 10.906500000000051 147.2715 C 10.906500000000051 214.00750000000002 65.00950000000006 268.11249999999995 131.74450000000004 268.11249999999995 C 170.41250000000005 268.11249999999995 204.83450000000005 249.95149999999998 226.95350000000002 221.69549999999998 C 221.30649999999991 223.10150000000002 215.4244999999999 223.9225 209.36649999999992 224.0415 Z  M 58.17949999999992 160.92350000000002 C 49.41749999999992 160.92350000000002 42.31349999999992 153.82350000000002 42.31349999999992 145.0595 C 42.31349999999992 136.2975 49.41749999999992 129.1935 58.17949999999992 129.1935 C 66.93849999999992 129.1935 74.04349999999991 136.2975 74.04349999999991 145.05949999999999 C 74.0424999999999 153.82450000000003 66.93849999999992 160.92350000000002 58.17949999999992 160.92350000000002 Z " fill-rule="evenodd" fill="rgb(56,131,176)"/><path d=" M 205.3474999999999 78.62250000000003 C 205.9494999999999 78.58650000000003 206.5084999999999 78.55650000000003 207.00249999999988 78.53050000000002 C 207.2234999999999 78.51450000000003 207.43349999999987 78.50350000000003 207.62749999999988 78.49250000000004 L 207.7344999999999 78.49850000000004 C 208.57049999999992 78.53550000000004 209.04649999999992 78.56150000000002 209.04649999999992 78.56150000000002 L 209.68249999999995 66.08650000000003 C 217.97149999999993 66.28050000000005 225.94149999999996 67.74750000000003 233.40949999999992 70.30450000000005 L 229.35649999999993 82.12750000000005 C 229.35649999999993 82.12750000000005 230.87749999999994 82.67850000000004 233.15149999999994 83.51150000000004 C 234.29649999999992 83.92050000000006 235.52649999999994 84.63450000000006 236.90349999999995 85.25950000000006 C 238.26549999999997 85.91550000000007 239.75549999999993 86.56550000000004 241.09149999999994 87.47650000000004 C 242.46849999999995 88.31650000000005 243.8594999999999 89.15950000000007 245.14649999999995 89.94650000000004 C 246.36549999999994 90.85750000000004 247.49449999999996 91.71050000000005 248.46149999999994 92.44150000000005 C 250.46749999999992 93.81850000000006 251.58949999999993 95.00950000000006 251.58949999999993 95.00950000000006 L 259.09349999999995 86.43750000000006 L 259.09349999999995 84.97250000000005 L 259.09349999999995 3.286500000000018 L 171.17149999999995 40.95950000000001 L 201.63549999999992 78.79750000000001 C 202.98649999999992 78.73250000000002 204.2464999999999 78.67450000000002 205.3474999999999 78.62250000000003 Z " fill="rgb(56,131,176)"/></svg>